<svg id="visual" viewBox="0 0 540 960" width="540" height="960" xmlns="http://www.w3.org/2000/svg" xmlns:xlink="http://www.w3.org/1999/xlink" version="1.1"><rect x="0" y="0" width="540" height="960" fill="#001220"></rect><path d="M0 519L12.8 501.5C25.7 484 51.3 449 77 435.7C102.7 422.3 128.3 430.7 154 435.8C179.7 441 205.3 443 231.2 459.3C257 475.7 283 506.3 308.8 525.2C334.7 544 360.3 551 386 552C411.7 553 437.3 548 463 542C488.7 536 514.3 529 527.2 525.5L540 522L540 961L527.2 961C514.3 961 488.7 961 463 961C437.3 961 411.7 961 386 961C360.3 961 334.7 961 308.8 961C283 961 257 961 231.2 961C205.3 961 179.7 961 154 961C128.3 961 102.7 961 77 961C51.3 961 25.7 961 12.8 961L0 961Z" fill="#fa7268"></path><path d="M0 569L12.8 567C25.7 565 51.3 561 77 548.8C102.7 536.7 128.3 516.3 154 512.5C179.7 508.7 205.3 521.3 231.2 541.3C257 561.3 283 588.7 308.8 581.7C334.7 574.7 360.3 533.3 386 507.3C411.7 481.3 437.3 470.7 463 492.2C488.7 513.7 514.3 567.3 527.2 594.2L540 621L540 961L527.2 961C514.3 961 488.7 961 463 961C437.3 961 411.7 961 386 961C360.3 961 334.7 961 308.8 961C283 961 257 961 231.2 961C205.3 961 179.7 961 154 961C128.3 961 102.7 961 77 961C51.3 961 25.7 961 12.8 961L0 961Z" fill="#ef5f67"></path><path d="M0 643L12.8 628.7C25.7 614.3 51.3 585.7 77 595C102.7 604.3 128.3 651.7 154 657.7C179.7 663.7 205.3 628.3 231.2 618.7C257 609 283 625 308.8 620.2C334.7 615.3 360.3 589.7 386 578C411.7 566.3 437.3 568.7 463 566.8C488.7 565 514.3 559 527.2 556L540 553L540 961L527.2 961C514.3 961 488.7 961 463 961C437.3 961 411.7 961 386 961C360.3 961 334.7 961 308.8 961C283 961 257 961 231.2 961C205.3 961 179.7 961 154 961C128.3 961 102.7 961 77 961C51.3 961 25.7 961 12.8 961L0 961Z" fill="#e34c67"></path><path d="M0 787L12.8 766.8C25.7 746.7 51.3 706.3 77 690C102.7 673.7 128.3 681.3 154 702C179.7 722.7 205.3 756.3 231.2 757.3C257 758.3 283 726.7 308.8 721C334.7 715.3 360.3 735.7 386 745.2C411.7 754.7 437.3 753.3 463 739.8C488.7 726.3 514.3 700.7 527.2 687.8L540 675L540 961L527.2 961C514.3 961 488.7 961 463 961C437.3 961 411.7 961 386 961C360.3 961 334.7 961 308.8 961C283 961 257 961 231.2 961C205.3 961 179.7 961 154 961C128.3 961 102.7 961 77 961C51.3 961 25.7 961 12.8 961L0 961Z" fill="#d53867"></path><path d="M0 769L12.8 789.7C25.7 810.3 51.3 851.7 77 856.5C102.7 861.3 128.3 829.7 154 810.5C179.7 791.3 205.3 784.7 231.2 780.8C257 777 283 776 308.8 791.2C334.7 806.3 360.3 837.7 386 853.8C411.7 870 437.3 871 463 859.3C488.7 847.7 514.3 823.3 527.2 811.2L540 799L540 961L527.2 961C514.3 961 488.7 961 463 961C437.3 961 411.7 961 386 961C360.3 961 334.7 961 308.8 961C283 961 257 961 231.2 961C205.3 961 179.7 961 154 961C128.3 961 102.7 961 77 961C51.3 961 25.7 961 12.8 961L0 961Z" fill="#c62368"></path></svg>